<svg width="1417" height="1355" xmlns="http://www.w3.org/2000/svg"><path fill="#fff" d="M-1-1h1419v1357H-1z"/><g fill="#d22856"><path d="M704.324 1354.765a83.254 83.254 0 01-62.355-28.128c-429.034-488.452-524.6-598.478-548.775-629.43h-.451A436.715 436.715 0 010 429.148 429.598 429.598 0 01429.146 0c105.508 0 203.786 36.148 280.6 101.44A434.569 434.569 0 01987.974 0a429.598 429.598 0 01429.147 429.146c0 102.684-35.923 198.137-101.215 268.965l-549 628.187a83.028 83.028 0 01-62.582 28.467zm-479.528-757.53c23.497 28.806 279.132 320.702 479.302 548.774l488.34-558.489c38.407-41.683 58.74-97.148 58.74-158.035A263.543 263.543 0 00987.974 166.17c-82.35 0-160.52 38.859-214.63 106.524a85.852 85.852 0 01-66.083 31.064 82.124 82.124 0 01-64.953-33.21 263.543 263.543 0 00-213.162-104.491 263.543 263.543 0 00-263.203 263.316c0 76.59 31.064 132.28 57.272 165.717l1.581 2.146z" stroke="#000"/><path d="M153.513 142.513h1119.974v589.986H153.513z"/><path fill-opacity="null" d="M540.171 562.503h323.326v586.653H540.171z"/><path fill-opacity="null" d="M843.497 592.502h236.661v379.991H843.497zm-509.988 43.332h373.325V959.16H333.509z"/></g></svg>